<svg xmlns="http://www.w3.org/2000/svg" xmlns:xlink="http://www.w3.org/1999/xlink" style="vertical-align:-3.255ex" width="51.789ex" height="7.134ex" viewBox="0 -1670.4 22298.2 3071.7"><defs><path id="i" stroke-width="1" d="M184 600q0 24 19 42t44 19q18 0 30-12t13-30q0-23-20-42t-44-20q-15 0-28 10t-14 33zM21 287q0 8 9 31t24 51 44 51 60 22q39 0 65-23t27-62q0-17-14-56t-40-105-42-113q-5-22-5-32 0-25 17-25 9 0 19 3t23 14 27 35 25 59q3 12 5 14t17 2q20 0 20-10 0-8-9-31t-25-51-45-50-62-22q-32 0-59 21T74 74q0 17 5 32t43 114q38 101 44 121t7 39q0 24-17 24h-2q-30 0-55-33t-38-84q-1-1-2-3t-1-3-2-2-3-1-4 0-8 0H27q-6 6-6 9z"/><path id="a" stroke-width="1" d="M376 495v40q0 24 1 33 0 45-10 56t-51 13h-18v23q0 23 2 23l10 1q10 1 29 2t37 2 37 2 30 3 11 1h3V390q0-306 1-309 3-20 14-26t45-9h18V0q-2 0-76-5t-79-6h-7v55l-8-7q-58-48-130-48-77 0-139 61T34 215q0 100 63 163t147 64q75 0 132-49v102zm-3-153q-45 63-113 63-49 0-87-36-27-28-34-64t-8-94q0-56 7-91t35-61q30-33 78-33 71 0 122 77v239z"/><path id="c" stroke-width="1" d="M27 422q53 4 82 56t32 122v15h40V431h135v-46H181V241q1-125 1-141t7-32q14-39 49-39 44 0 54 71 1 8 1 46v35h40v-47q0-77-42-117-27-27-70-27-34 0-59 12t-38 31-19 35-7 32q-1 7-1 148v137H18v37h9z"/><path id="d" stroke-width="1" d="M94 250q0 69 10 131t23 107 37 88 38 67 42 52 33 34 25 21h17q14 0 14-9 0-3-17-21t-41-53-49-86-42-138-17-193 17-192 41-139 49-86 42-53 17-21q0-9-15-9h-16l-28 24q-94 85-137 212T94 250z"/><path id="e" stroke-width="1" d="M65 0Q45 0 45 18q3 34 16 42 4 2 20 2 74 0 84 12 1 0 100 154t200 311 104 160q7 8 14 10t28 2 26-1 12-10q1-3 46-320l46-317 43-1h43q12-12 12-17l-4-16q-4-20-8-24t-21-5h-16q-13 0-47 1t-86 1q-72 0-110-1t-43-1q-23 0-23 17 3 37 16 43 4 2 44 2 39 0 39 1 0 5-7 58t-9 58v2H308l-37-57q-35-55-35-57t47-5h4q29 0 29-16 0-20-9-38-5-5-12-8l-33 1q-20 1-94 1-49 0-75-1T65 0zm472 372q-4 30-9 63t-7 51-3 18v1q-1 0-85-130l-85-131 103-1q104 0 104 1l-18 128z"/><path id="f" stroke-width="1" d="M60 749l4 1h22l28-24q94-85 137-212t43-264q0-68-10-131T261 12t-37-88-38-67-41-51-32-33-23-19l-4-4H63q-3 0-5 3t-3 9q1 1 11 13Q221-64 221 250T66 725q-10 12-11 13 0 8 5 11z"/><path id="g" stroke-width="1" d="M56 347q0 13 14 20h637q15-8 15-20 0-11-14-19l-318-1H72q-16 5-16 20zm0-194q0 15 16 20h636q14-10 14-20 0-13-15-20H70q-14 7-14 20z"/><path id="h" stroke-width="1" d="M33 157q0 101 76 192t171 92q51 0 90-49 16 30 46 30 13 0 23-8t10-20q0-13-37-160T374 68q0-25 7-33t21-9q9 1 20 9 21 20 41 96 6 20 10 21 2 1 10 1h4q19 0 19-9 0-6-5-27t-20-54-32-50Q436 0 417-8q-8-2-24-2-34 0-57 15t-30 31l-6 15q-1 1-4-1l-4-4q-59-56-120-56-55 0-97 40T33 157zm318 171q0 6-5 22t-23 35-46 20q-35 0-67-31t-50-81q-29-79-41-164v-11q0-8-1-12 0-45 18-62t43-18q38 0 75 33t44 51q2 4 27 107t26 111z"/><path id="b" stroke-width="1" d="M28 218q0 55 20 100t50 73 65 42 66 15q53 0 91-18t58-50 28-64 9-71q0-7-7-14H126v-15q0-148 100-180 20-6 44-6 42 0 72 32 17 17 27 42l10 24q3 3 16 3h3q17 0 17-10 0-4-3-13-19-55-63-87t-99-32q-95 0-158 69T28 218zm305 57q-11 128-95 136h-2q-8 0-16-1t-25-8-29-21-23-41-16-66v-7h206v8z"/><path id="j" stroke-width="1" d="M213 578l-13-5q-14-5-40-10t-58-7H83v46h19q47 2 87 15t56 24 28 22q2 3 12 3 9 0 17-6V361l1-300q7-7 12-9t24-4 62-2h26V0h-11q-21 3-159 3-136 0-157-3H88v46h64q16 0 25 1t16 3 8 2 6 5 6 4v517z"/><path id="k" stroke-width="1" d="M56 237v13l14 20h299v150l1 150q10 13 19 13 13 0 20-15V270h298q15-8 15-20t-15-20H409V-68q-8-14-18-14h-4q-12 0-18 14v298H70q-14 7-14 20z"/><path id="l" stroke-width="1" d="M78 60q0 24 17 42t43 18q24 0 42-16t19-43q0-25-17-43T139 0 96 17 78 60z"/><path id="m" stroke-width="1" d="M21 287q1 6 3 16t12 38 20 47 33 37 46 17q36 0 60-18t30-34 6-21q0-2 1-2l11 11q61 64 139 64 54 0 87-27t34-79-38-157-38-127q0-26 17-26 6 0 9 1 29 5 52 38t35 80q2 8 20 8 20 0 20-8 0-1-4-15-8-29-22-57t-46-56-69-27q-47 0-68 27t-21 56q0 19 36 120t37 152q0 59-44 59h-5q-86 0-145-101l-7-12-33-134Q156 26 151 16q-13-27-43-27-13 0-21 6T76 7t-2 10q0 13 38 163t40 163q1 5 1 23 0 39-24 39-38 0-63-100-6-20-6-21-2-6-19-6H27q-6 6-6 9z"/><path id="n" stroke-width="1" d="M60 948q3 2 605 2h602l58-135q59-138 63-146h-40l-7 14q-21 41-56 78-50 48-111 77t-141 43-151 17-183 4H251l8-11q463-633 465-639 1-2 0-6-3-3-264-302L196-356q0-1 211-1h141q89 0 128-1 136 0 220 5t167 21 141 49 103 87q21 26 41 72h40q0-1-7-21t-25-65-31-84l-58-155-601-1q-602 0-605 2-6 2-6 9 0 2 2 6l533 610q0 1-33 45T452 366 322 544L56 909l-1 15q0 21 5 24z"/><path id="o" stroke-width="1" d="M297 596q0 31 21 48t43 17q17 0 28-10t14-28q0-28-19-47t-44-19q-18 0-30 10t-13 29zm-9-220q0 29-26 29-22 0-42-12t-35-31-24-37-17-32l-7-14q-2-1-16-1h-14q-6 6-6 8t4 13q21 49 59 92t88 50h8q7 0 12 1 24-1 44-10 25-14 38-31t13-53v-16l-49-199Q267-67 264-75q-18-50-70-89T75-204q-50 0-68 21t-19 46q0 27 19 46t46 20q17 0 29-10t13-31q0-36-32-55 6-1 14-1 34 0 62 28t43 66l11 42q11 43 26 104t32 125 27 111 11 57q0 7-1 11z"/><path id="p" stroke-width="1" d="M84 237v13l14 20h581q15-8 15-20t-15-20H98q-14 7-14 20z"/><path id="q" stroke-width="1" d="M258 624h-27q-17 0-23 2t-9 13q4 39 17 45 4 2 131 2h126q1-1 5-4t6-5q3-4 51-264l49-260 24 34q23 34 64 94t89 129q174 253 182 261 6 7 19 15h204q35 0 44-3t9-15q-4-36-16-42-4-2-54-2h-49l-69-280Q960 64 960 63t44-1h27q32 0 32-18-3-37-17-42-4-2-12-2-4 0-44 1T875 2q-71 0-108-1t-42-1h-2q-16 0-20 15 4 39 17 45 4 2 53 2h49q139 556 139 557L754 318Q546 15 543 12 531 0 510 0h-15q-5 0-11 5t-7 14q0 1-56 296l-54 289-68-269Q234 72 234 68q0-6 68-6 32 0 32-16-2-38-17-44-4-2-11-2-5 0-39 1t-86 1q-56 0-85-1T63 0Q48 0 43 15q0 4 4 20 5 20 10 23t37 4q53 2 70 7l69 276q69 274 69 277 0 2-44 2z"/></defs><g fill="currentColor" stroke="currentColor" stroke-width="0" transform="scale(1 -1)"><use xlink:href="#a"/><use x="556" xlink:href="#b"/><use x="1001" xlink:href="#c"/><g transform="translate(1557)"><use xlink:href="#d"/><use x="389" xlink:href="#e"/><use x="1259" xlink:href="#f"/></g><use x="3483" xlink:href="#g"/><g transform="translate(4539)"><use xlink:href="#h"/><g transform="matrix(.707 0 0 .707 529 -150)"><use xlink:href="#i"/><use x="345" xlink:href="#j"/></g></g><g transform="translate(5767)"><use xlink:href="#e"/><g transform="matrix(.707 0 0 .707 869 -150)"><use xlink:href="#i"/><use x="345" xlink:href="#j"/></g></g><use x="7335" xlink:href="#k"/><use x="8113" xlink:href="#l"/><use x="8558" xlink:href="#l"/><use x="9003" xlink:href="#l"/><use x="9449" xlink:href="#k"/><g transform="translate(10227)"><use xlink:href="#h"/><g transform="matrix(.707 0 0 .707 529 -150)"><use xlink:href="#i"/><use x="345" xlink:href="#m"/></g></g><g transform="translate(11526)"><use xlink:href="#e"/><g transform="matrix(.707 0 0 .707 869 -150)"><use xlink:href="#i"/><use x="345" xlink:href="#m"/></g></g><use x="13442" xlink:href="#g"/><g transform="translate(14498)"><use xlink:href="#n"/><g transform="matrix(.707 0 0 .707 124 -1090)"><use xlink:href="#o"/><use x="412" xlink:href="#g"/><use x="1191" xlink:href="#j"/></g><use x="721" y="1627" transform="scale(.707)" xlink:href="#m"/></g><g transform="translate(16109)"><use xlink:href="#h"/><g transform="matrix(.707 0 0 .707 529 -150)"><use xlink:href="#i"/><use x="345" xlink:href="#o"/></g></g><g transform="translate(17275)"><use xlink:href="#d"/><use x="389" xlink:href="#p"/><use x="1168" xlink:href="#j"/><use x="1668" xlink:href="#f"/><g transform="matrix(.707 0 0 .707 2058 477)"><use xlink:href="#i"/><use x="345" xlink:href="#k"/><use x="1124" xlink:href="#o"/></g></g><g transform="translate(20519)"><use xlink:href="#q"/><g transform="matrix(.707 0 0 .707 1142 -150)"><use xlink:href="#i"/><use x="345" xlink:href="#o"/></g></g></g></svg>